<svg width="16" height="19" viewBox="0 0 16 19" fill="none" xmlns="http://www.w3.org/2000/svg">
<g clip-path="url(#clip0_26_4)">
<path d="M13.0631 0.0877539C13.9871 0.0737539 14.9111 0.0807539 15.8351 0.0727539C15.8491 0.532754 15.8371 0.993754 15.8431 1.45475C15.8541 1.90975 15.6551 2.36175 15.3151 2.66375C15.0881 2.85575 14.8711 3.05975 14.6651 3.27475C14.4151 3.54575 14.2381 3.88675 14.1841 4.25275C14.1341 4.59375 14.1141 4.93875 14.1201 5.28275C14.1231 6.50075 14.1181 7.71875 14.1301 8.93575C14.1091 9.28375 14.1421 9.63175 14.1241 9.97975C14.1431 10.8928 14.1341 11.8058 14.1401 12.7188C14.1421 13.5378 13.9811 14.3558 13.6731 15.1148C13.5991 15.3198 13.4861 15.5058 13.3891 15.6988C13.1301 16.1988 12.7891 16.6528 12.4061 17.0648C11.5511 17.9688 10.4011 18.5948 9.17012 18.7928C8.79412 18.8268 8.41712 18.8768 8.04012 18.8478C7.82912 18.8428 7.62112 18.8158 7.41112 18.8018C6.75212 18.7068 6.11812 18.4758 5.53312 18.1608C4.70312 17.7128 3.99112 17.0548 3.46212 16.2738C3.33512 16.0738 3.20112 15.8778 3.08512 15.6708C2.61412 14.8088 2.37212 13.8298 2.34912 12.8498C2.35012 11.8708 2.33112 10.8928 2.33212 9.91375C2.33312 8.28275 2.32612 6.65175 2.32512 5.02075C2.31112 4.76175 2.29112 4.50175 2.24612 4.24575C2.17112 3.92375 2.01812 3.61775 1.79212 3.37575C1.56512 3.11575 1.28112 2.91575 1.03012 2.67975C0.709122 2.37775 0.535122 1.93675 0.550122 1.49775C0.548122 1.04975 0.543122 0.600754 0.549122 0.152754C0.719122 0.154754 0.889122 0.156754 1.05912 0.146754C2.34912 0.138754 3.64012 0.139754 4.93012 0.123754C5.81812 0.122754 6.70712 0.115754 7.59512 0.114754C7.59912 0.604754 7.62012 1.09475 7.60912 1.58475C7.59312 2.00175 7.40712 2.40675 7.10012 2.68975C6.74712 3.00875 6.35212 3.30275 6.11212 3.72275C5.89012 4.10075 5.88012 4.55075 5.85612 4.97475C5.83112 5.48975 5.83212 6.00575 5.83912 6.52175C5.85712 6.85475 5.84512 7.18875 5.86612 7.52175C5.94112 9.64975 6.06912 11.7778 6.31712 13.8928C6.33612 14.0068 6.34012 14.1238 6.37512 14.2338C6.41212 14.3358 6.54912 14.3818 6.63912 14.3198C6.69912 14.2788 6.73212 14.2068 6.72612 14.1348C6.72612 13.0538 6.73312 11.9738 6.73112 10.8938C6.73612 10.5098 6.72312 10.1248 6.73912 9.74075C6.74412 8.55175 6.74612 7.36275 6.75012 6.17375C6.74012 5.99475 6.95112 5.88475 7.10812 5.92975C7.19912 5.95775 7.29712 6.02575 7.30512 6.12975C7.32612 6.97675 7.33212 7.82475 7.35412 8.67275C7.36012 8.94875 7.35412 9.22575 7.37112 9.50075C7.37012 10.0738 7.39212 10.6458 7.40212 11.2188C7.42612 12.2058 7.43912 13.1928 7.46712 14.1798C7.48212 14.2938 7.60812 14.3698 7.71712 14.3348C7.79912 14.3148 7.85712 14.2348 7.85912 14.1528C7.86912 13.6748 7.85312 13.1968 7.87012 12.7188C7.87612 11.5528 7.87312 10.3878 7.88112 9.22175C7.90612 8.19175 7.88712 7.15975 7.90912 6.12975C7.95712 5.85975 8.40312 5.84075 8.50112 6.08775C8.51312 6.14375 8.50712 6.20275 8.50812 6.26075C8.52612 7.79775 8.54412 9.33375 8.55712 10.8708C8.58012 11.4718 8.56312 12.0748 8.58712 12.6758C8.58812 13.1548 8.59712 13.6328 8.60112 14.1118C8.59912 14.1958 8.64012 14.2858 8.72112 14.3188C8.81812 14.3708 8.94812 14.3138 8.98412 14.2118C9.00112 14.1508 9.00012 14.0868 9.00112 14.0238C9.00812 12.7918 9.03312 11.5598 9.03512 10.3268C9.05512 9.79075 9.04312 9.25375 9.06512 8.71775C9.07112 8.23275 9.07612 7.74675 9.07912 7.26075C9.09912 6.88375 9.08912 6.50575 9.10012 6.12875C9.10312 6.03075 9.19112 5.95975 9.27612 5.92775C9.40112 5.87375 9.55612 5.93075 9.62912 6.04175C9.66812 6.09975 9.65612 6.17275 9.65812 6.23875C9.66512 7.51475 9.68812 8.79075 9.68712 10.0658C9.70512 10.6458 9.70412 11.2258 9.71012 11.8058C9.73212 12.5948 9.71712 13.3848 9.74312 14.1738C9.75512 14.2968 9.91212 14.3768 10.0161 14.3048C10.1361 14.2328 10.1191 14.0758 10.1411 13.9568C10.3371 12.2388 10.4181 10.5098 10.5071 8.78275C10.5381 8.11575 10.5541 7.44875 10.5701 6.78175C10.5741 5.96975 10.6021 5.15475 10.5041 4.34675C10.4581 3.95475 10.2671 3.58875 9.99512 3.30575C9.77912 3.07775 9.52312 2.89375 9.29512 2.67875C8.97012 2.38875 8.78112 1.95475 8.78612 1.51975C8.78112 1.04975 8.78512 0.579754 8.79512 0.109754C8.92012 0.113754 9.04512 0.104754 9.17112 0.101754C10.4681 0.0987539 11.7661 0.0927539 13.0631 0.0877539Z" fill="white"/>
</g>
<defs>
<clipPath id="clip0_26_4">
<rect width="15.297" height="18.783" fill="white" transform="translate(0.546265 0.0727539)"/>
</clipPath>
</defs>
</svg>
